<svg width="208" height="339" viewBox="0 0 208 339" fill="none" xmlns="http://www.w3.org/2000/svg">
<path fill-rule="evenodd" clip-rule="evenodd" d="M186.129 76.9653C186.433 97.2783 178.284 115.896 164.68 129.978C188.125 142.294 203.801 161.584 205.559 183.634L205.667 183.633L205.718 187.003L207.939 335.578L2.27134 338.389L0.0505336 189.825C0.0504788 189.821 0.0504243 189.817 0.0503702 189.814C0.0503161 189.81 0.0502624 189.807 0.0502091 189.803L0 186.444L0.108794 186.443C1.20697 164.353 16.2998 144.643 39.3663 131.691C25.3477 117.986 16.6453 99.5991 16.3417 79.2862C15.6968 36.1434 53.1822 0.649689 100.068 0.00879786C146.953 -0.632093 185.484 33.8225 186.129 76.9653Z" fill="#8C8DE9"/>
</svg>
