<svg width="244" height="424" viewBox="0 0 244 424" fill="none" xmlns="http://www.w3.org/2000/svg">
<path fill-rule="evenodd" clip-rule="evenodd" d="M231.344 102.135C231.055 133.044 215.76 160.577 191.89 178.911C221.926 193.837 241.945 218.067 243.464 245.516L243.596 245.517L241.934 423.59L0 421.385L1.61828 247.99C1.61767 247.747 1.61849 247.505 1.62077 247.262C1.62303 247.021 1.62672 246.78 1.63181 246.54L1.66193 243.312L1.78582 243.314C3.76164 216.749 23.0456 193.522 51.8175 179.027C27.2479 160.259 11.703 131.828 11.9988 100.136C12.52 44.2833 62.0446 -0.546928 122.615 0.00504285C183.185 0.557013 231.865 46.2821 231.344 102.135Z" fill="#B0D6A5"/>
</svg>
